<?xml version="1.0" encoding="utf-8"?>
<!-- Generator: Adobe Illustrator 19.2.1, SVG Export Plug-In . SVG Version: 6.00 Build 0)  -->
<svg version="1.1" id="layer" xmlns="http://www.w3.org/2000/svg" xmlns:xlink="http://www.w3.org/1999/xlink" x="0px" y="0px"
	 viewBox="0 0 652 652" style="enable-background:new 0 0 652 652;" xml:space="preserve">
<style type="text/css">
	.st0{fill:#00548E;}
	.st1{fill:#00548D;}
	.st2{fill:#7D9CC3;}
	.st3{fill:#B1C2DB;}
</style>
<g>
	<path class="st0" d="M400.4,333.6V411h-27.8v-70.3c0-7.2-1.9-17.7-22.8-17.7c-19.8,0-22.3,10.5-22.3,17.7V411h-27.8v-70.3
		c0-7.2-2.3-17.7-23.1-17.7c-20.9,0-23.1,10.5-23.1,17.7V411h-27.8v-95.4l3.5-0.3c8.2-0.9,24.7-8.8,50.3-8.8
		c18.8,0,27.3,4.6,34.8,13.2c6.8-7.7,21.1-13.2,39-13.2C381,306.4,400.4,314.8,400.4,333.6"/>
	<path class="st0" d="M437.7,411h-27.8V270.3h27.8v69.6l37.2-27.7h39.7l-62.5,39.5c28.5,0.5,46.3,8.9,51.8,17.5
		c4.5,7,6.8,24.4,6.8,41.7h-27.8c0-13.7-1.7-27.2-5.4-32.3c-7.1-10-21.9-12.1-39.8-12.8V411z"/>
	<path class="st0" d="M618.8,341.2h-26.6c0-8.6-2.8-19.8-23.8-19.8c-18.6,0-20.9,6.1-20.9,14.6c0,8.4,5.7,11.6,28.5,13.7
		c20.7,1.9,44.5,0.9,44.5,29.1c0,29.5-31.3,34.7-50.8,34.7c-27.3,0-53.4-6.8-53.4-35.6h27.8c0,19.5,13.9,20.7,24.7,20.7
		c15.8,0,24.7-5.4,24.7-15.1c0-13.9-11.3-13-31.3-14.9c-26.1-2.6-42.8-4.2-42.8-29.5c0-28.1,25.9-32.6,48.9-32.6
		C604.3,306.4,618.8,319.1,618.8,341.2"/>
	<path class="st1" d="M400.4,333.6V411h-27.8v-70.3c0-7.2-1.9-17.7-22.8-17.7c-19.8,0-22.3,10.5-22.3,17.7V411h-27.8v-70.3
		c0-7.2-2.3-17.7-23.1-17.7c-20.9,0-23.1,10.5-23.1,17.7V411h-27.8v-95.4l3.5-0.3c8.2-0.9,24.7-8.8,50.3-8.8
		c18.8,0,27.3,4.6,34.8,13.2c6.8-7.7,21.1-13.2,39-13.2C381,306.4,400.4,314.8,400.4,333.6"/>
	<path class="st1" d="M437.7,411h-27.8V270.3h27.8v69.6l37.2-27.7h39.7l-62.5,39.5c28.5,0.5,46.3,8.9,51.8,17.5
		c4.5,7,6.8,24.4,6.8,41.7h-27.8c0-13.7-1.7-27.2-5.4-32.3c-7.1-10-21.9-12.1-39.8-12.8V411z"/>
	<path class="st1" d="M618.8,341.2h-26.6c0-8.6-2.8-19.8-23.8-19.8c-18.6,0-20.9,6.1-20.9,14.6c0,8.4,5.7,11.6,28.5,13.7
		c20.7,1.9,44.5,0.9,44.5,29.1c0,29.5-31.3,34.7-50.8,34.7c-27.3,0-53.4-6.8-53.4-35.6h27.8c0,19.5,13.9,20.7,24.7,20.7
		c15.8,0,24.7-5.4,24.7-15.1c0-13.9-11.3-13-31.3-14.9c-26.1-2.6-42.8-4.2-42.8-29.5c0-28.1,25.9-32.6,48.9-32.6
		C604.3,306.4,618.8,319.1,618.8,341.2"/>
	<path class="st0" d="M203.2,270c0,22.3-17.9,40.4-40.1,40.4c-22.1,0-40.1-18.1-40.1-40.4c0-22.3,17.9-40.4,40.1-40.4
		C185.2,229.6,203.2,247.7,203.2,270"/>
	<path class="st2" d="M203.3,370.3c0,22.3-17.9,40.4-40.1,40.4c-22.2,0-40.1-18.1-40.1-40.4c0-22.3,17.9-40.4,40.1-40.4
		C185.4,329.9,203.3,348,203.3,370.3"/>
	<path class="st3" d="M100.7,370.4c0,22.3-17.9,40.4-40.1,40.4c-22.1,0-40.1-18.1-40.1-40.4c0-22.3,18-40.4,40.1-40.4
		C82.7,330,100.7,348.1,100.7,370.4"/>
</g>
</svg>
